<svg width="336" height="104" viewBox="0 0 336 104" fill="none" xmlns="http://www.w3.org/2000/svg">
<g clip-path="url(#clip0_7_83)">
<path d="M182 56L202 104H174V80H162V104H134L154 56H182ZM162 64V72H174V64H162Z" fill="#287BE7"/>
<path d="M126 104H90L108 80H136.5L126 104ZM246 104H210L199.5 80H228L246 104ZM210 56H189L168 8L147 56H126L168 0L210 56Z" fill="#287BE7"/>
<path d="M13.8665 65.7244H10.3153C10.268 65.3598 10.1709 65.0308 10.0241 64.7372C9.87737 64.4437 9.68324 64.1927 9.44176 63.9844C9.20028 63.776 8.91383 63.6174 8.58239 63.5085C8.25568 63.3949 7.89347 63.3381 7.49574 63.3381C6.79025 63.3381 6.18182 63.5109 5.67045 63.8565C5.16383 64.2022 4.7732 64.7017 4.49858 65.3551C4.22869 66.0085 4.09375 66.7992 4.09375 67.7273C4.09375 68.6932 4.23106 69.5028 4.50568 70.1562C4.78504 70.8049 5.17566 71.295 5.67756 71.6264C6.18419 71.9531 6.78314 72.1165 7.47443 72.1165C7.86269 72.1165 8.21544 72.0668 8.53267 71.9673C8.85464 71.8679 9.13636 71.7235 9.37784 71.5341C9.62405 71.34 9.82528 71.1056 9.98153 70.831C10.1425 70.5516 10.2538 70.2367 10.3153 69.8864L13.8665 69.9077C13.8049 70.5516 13.6179 71.1861 13.3054 71.8111C12.9976 72.4361 12.5739 73.0066 12.0341 73.5227C11.4943 74.0341 10.8362 74.4413 10.0597 74.7443C9.28788 75.0473 8.40246 75.1989 7.40341 75.1989C6.08712 75.1989 4.90814 74.91 3.86648 74.3324C2.82955 73.75 2.01042 72.9025 1.40909 71.7898C0.807765 70.6771 0.507102 69.3229 0.507102 67.7273C0.507102 66.1269 0.8125 64.7704 1.4233 63.6577C2.03409 62.545 2.86032 61.6998 3.90199 61.1222C4.94366 60.5445 6.1108 60.2557 7.40341 60.2557C8.28409 60.2557 9.09848 60.3788 9.84659 60.625C10.5947 60.8665 11.2528 61.2216 11.821 61.6903C12.3892 62.1544 12.8509 62.7249 13.206 63.402C13.5611 64.0791 13.7812 64.8532 13.8665 65.7244ZM15.8782 75V60.4545H21.9435C23.0326 60.4545 23.944 60.6084 24.6779 60.9162C25.4165 61.224 25.9705 61.6548 26.3398 62.2088C26.7139 62.7628 26.9009 63.4044 26.9009 64.1335C26.9009 64.6875 26.7849 65.1823 26.5529 65.6179C26.3209 66.0488 26.0013 66.4062 25.5941 66.6903C25.1869 66.9744 24.7158 67.1733 24.1808 67.2869V67.429C24.7679 67.4574 25.31 67.616 25.8072 67.9048C26.3091 68.1937 26.7115 68.5961 27.0146 69.1122C27.3176 69.6236 27.4691 70.2296 27.4691 70.9304C27.4691 71.7116 27.2702 72.41 26.8725 73.0256C26.4748 73.6364 25.8995 74.1193 25.1467 74.4744C24.3938 74.8248 23.48 75 22.4052 75H15.8782ZM19.3938 72.1662H21.5671C22.3294 72.1662 22.8905 72.0218 23.2504 71.733C23.6149 71.4441 23.7972 71.0417 23.7972 70.5256C23.7972 70.1515 23.7096 69.8295 23.5344 69.5597C23.3593 69.285 23.1107 69.0743 22.7887 68.9276C22.4667 68.776 22.0808 68.7003 21.631 68.7003H19.3938V72.1662ZM19.3938 66.4347H21.3398C21.7234 66.4347 22.0643 66.3707 22.3626 66.2429C22.6609 66.1151 22.8929 65.9304 23.0586 65.6889C23.229 65.4474 23.3143 65.1562 23.3143 64.8153C23.3143 64.3277 23.1415 63.9441 22.7958 63.6648C22.4502 63.3854 21.9838 63.2457 21.3967 63.2457H19.3938V66.4347ZM29.1594 75V60.4545H39.3015V63.3097H32.6751V66.2926H38.783V69.1548H32.6751V72.1449H39.3015V75H29.1594ZM41.5032 75V60.4545H47.5117C48.6007 60.4545 49.5406 60.6676 50.3313 61.0938C51.1268 61.5152 51.7399 62.1046 52.1708 62.8622C52.6017 63.6151 52.8171 64.491 52.8171 65.4901C52.8171 66.4938 52.5969 67.3722 52.1566 68.125C51.721 68.8731 51.0984 69.4531 50.2887 69.8651C49.479 70.277 48.5179 70.483 47.4052 70.483H43.6978V67.7131H46.7518C47.2821 67.7131 47.7248 67.6207 48.0799 67.4361C48.4397 67.2514 48.712 66.9934 48.8967 66.6619C49.0813 66.3258 49.1737 65.9351 49.1737 65.4901C49.1737 65.0402 49.0813 64.652 48.8967 64.3253C48.712 63.9938 48.4397 63.7382 48.0799 63.5582C47.7201 63.3783 47.2773 63.2884 46.7518 63.2884H45.0188V75H41.5032ZM53.918 78.5014V72.2585H54.9194C55.2556 72.0312 55.5633 71.714 55.8427 71.3068C56.122 70.8949 56.3612 70.3172 56.56 69.5739C56.7589 68.8258 56.9009 67.8385 56.9862 66.6122L57.4407 60.4545H67.391V72.2585H68.9535V78.4943H65.5728V75H57.2987V78.5014H53.918ZM58.9535 72.2585H64.0103V63.3097H60.5941L60.3668 66.6122C60.3053 67.5355 60.2058 68.3499 60.0685 69.0554C59.9312 69.7609 59.7679 70.3764 59.5785 70.902C59.3891 71.4228 59.1808 71.875 58.9535 72.2585ZM69.9336 75V72.2443L70.3313 72.2017C70.8427 72.1402 71.2594 71.9342 71.5813 71.5838C71.9033 71.2287 72.1471 70.6652 72.3129 69.8935C72.4833 69.117 72.5922 68.0682 72.6396 66.7472L72.8739 60.4545H83.0799V75H79.6779V63.2244H76.1197L75.8924 68.0398C75.8119 69.7017 75.6012 71.044 75.2603 72.0668C74.9194 73.0848 74.3915 73.8281 73.6765 74.2969C72.9663 74.7656 72.0122 75 70.8143 75H69.9336ZM99.0014 67.7273C99.0014 69.3277 98.6937 70.6842 98.0781 71.7969C97.4626 72.9096 96.6293 73.7547 95.5781 74.3324C94.5317 74.91 93.3575 75.1989 92.0554 75.1989C90.7486 75.1989 89.572 74.9077 88.5256 74.3253C87.4792 73.7429 86.6482 72.8977 86.0327 71.7898C85.4219 70.6771 85.1165 69.3229 85.1165 67.7273C85.1165 66.1269 85.4219 64.7704 86.0327 63.6577C86.6482 62.545 87.4792 61.6998 88.5256 61.1222C89.572 60.5445 90.7486 60.2557 92.0554 60.2557C93.3575 60.2557 94.5317 60.5445 95.5781 61.1222C96.6293 61.6998 97.4626 62.545 98.0781 63.6577C98.6937 64.7704 99.0014 66.1269 99.0014 67.7273ZM95.4077 67.7273C95.4077 66.7803 95.2727 65.9801 95.0028 65.3267C94.7377 64.6733 94.3542 64.1785 93.8523 63.8423C93.3551 63.5062 92.7562 63.3381 92.0554 63.3381C91.3594 63.3381 90.7604 63.5062 90.2585 63.8423C89.7566 64.1785 89.3707 64.6733 89.1009 65.3267C88.8357 65.9801 88.7031 66.7803 88.7031 67.7273C88.7031 68.6742 88.8357 69.4744 89.1009 70.1278C89.3707 70.7812 89.7566 71.276 90.2585 71.6122C90.7604 71.9484 91.3594 72.1165 92.0554 72.1165C92.7562 72.1165 93.3551 71.9484 93.8523 71.6122C94.3542 71.276 94.7377 70.7812 95.0028 70.1278C95.2727 69.4744 95.4077 68.6742 95.4077 67.7273ZM101.054 75V60.4545H107.119C108.208 60.4545 109.12 60.6084 109.854 60.9162C110.592 61.224 111.146 61.6548 111.516 62.2088C111.89 62.7628 112.077 63.4044 112.077 64.1335C112.077 64.6875 111.961 65.1823 111.729 65.6179C111.497 66.0488 111.177 66.4062 110.77 66.6903C110.363 66.9744 109.892 67.1733 109.357 67.2869V67.429C109.944 67.4574 110.486 67.616 110.983 67.9048C111.485 68.1937 111.887 68.5961 112.19 69.1122C112.493 69.6236 112.645 70.2296 112.645 70.9304C112.645 71.7116 112.446 72.41 112.048 73.0256C111.651 73.6364 111.075 74.1193 110.322 74.4744C109.57 74.8248 108.656 75 107.581 75H101.054ZM104.57 72.1662H106.743C107.505 72.1662 108.066 72.0218 108.426 71.733C108.791 71.4441 108.973 71.0417 108.973 70.5256C108.973 70.1515 108.885 69.8295 108.71 69.5597C108.535 69.285 108.286 69.0743 107.964 68.9276C107.643 68.776 107.257 68.7003 106.807 68.7003H104.57V72.1662ZM104.57 66.4347H106.516C106.899 66.4347 107.24 66.3707 107.538 66.2429C107.837 66.1151 108.069 65.9304 108.234 65.6889C108.405 65.4474 108.49 65.1562 108.49 64.8153C108.49 64.3277 108.317 63.9441 107.972 63.6648C107.626 63.3854 107.16 63.2457 106.572 63.2457H104.57V66.4347ZM127.538 65.7244H123.987C123.94 65.3598 123.843 65.0308 123.696 64.7372C123.549 64.4437 123.355 64.1927 123.114 63.9844C122.872 63.776 122.586 63.6174 122.254 63.5085C121.928 63.3949 121.565 63.3381 121.168 63.3381C120.462 63.3381 119.854 63.5109 119.342 63.8565C118.836 64.2022 118.445 64.7017 118.17 65.3551C117.901 66.0085 117.766 66.7992 117.766 67.7273C117.766 68.6932 117.903 69.5028 118.178 70.1562C118.457 70.8049 118.848 71.295 119.349 71.6264C119.856 71.9531 120.455 72.1165 121.146 72.1165C121.535 72.1165 121.887 72.0668 122.205 71.9673C122.527 71.8679 122.808 71.7235 123.05 71.5341C123.296 71.34 123.497 71.1056 123.653 70.831C123.814 70.5516 123.926 70.2367 123.987 69.8864L127.538 69.9077C127.477 70.5516 127.29 71.1861 126.977 71.8111C126.67 72.4361 126.246 73.0066 125.706 73.5227C125.166 74.0341 124.508 74.4413 123.732 74.7443C122.96 75.0473 122.074 75.1989 121.075 75.1989C119.759 75.1989 118.58 74.91 117.538 74.3324C116.501 73.75 115.682 72.9025 115.081 71.7898C114.48 70.6771 114.179 69.3229 114.179 67.7273C114.179 66.1269 114.484 64.7704 115.095 63.6577C115.706 62.545 116.532 61.6998 117.574 61.1222C118.616 60.5445 119.783 60.2557 121.075 60.2557C121.956 60.2557 122.77 60.3788 123.518 60.625C124.267 60.8665 124.925 61.2216 125.493 61.6903C126.061 62.1544 126.523 62.7249 126.878 63.402C127.233 64.0791 127.453 64.8532 127.538 65.7244ZM138.435 75L133.861 68.9631H133.066V75H129.55V60.4545H133.066V66.1009H133.627L138.13 60.4545H142.526L136.922 67.3224L142.817 75H138.435Z" fill="black"/>
<path d="M197.247 75H193.469L198.376 60.4545H203.057L207.964 75H204.186L200.77 64.1193H200.656L197.247 75ZM196.743 69.2756H204.641V71.946H196.743V69.2756ZM209.531 75V60.4545H215.596C216.685 60.4545 217.596 60.6084 218.33 60.9162C219.069 61.224 219.623 61.6548 219.992 62.2088C220.366 62.7628 220.553 63.4044 220.553 64.1335C220.553 64.6875 220.437 65.1823 220.205 65.6179C219.973 66.0488 219.654 66.4062 219.246 66.6903C218.839 66.9744 218.368 67.1733 217.833 67.2869V67.429C218.42 67.4574 218.962 67.616 219.46 67.9048C219.961 68.1937 220.364 68.5961 220.667 69.1122C220.97 69.6236 221.121 70.2296 221.121 70.9304C221.121 71.7116 220.923 72.41 220.525 73.0256C220.127 73.6364 219.552 74.1193 218.799 74.4744C218.046 74.8248 217.132 75 216.058 75H209.531ZM213.046 72.1662H215.219C215.982 72.1662 216.543 72.0218 216.903 71.733C217.267 71.4441 217.45 71.0417 217.45 70.5256C217.45 70.1515 217.362 69.8295 217.187 69.5597C217.012 69.285 216.763 69.0743 216.441 68.9276C216.119 68.776 215.733 68.7003 215.283 68.7003H213.046V72.1662ZM213.046 66.4347H214.992C215.376 66.4347 215.717 66.3707 216.015 66.2429C216.313 66.1151 216.545 65.9304 216.711 65.6889C216.881 65.4474 216.967 65.1562 216.967 64.8153C216.967 64.3277 216.794 63.9441 216.448 63.6648C216.103 63.3854 215.636 63.2457 215.049 63.2457H213.046V66.4347ZM222.336 63.3097V60.4545H234.63V63.3097H230.219V75H226.754V63.3097H222.336ZM249.412 67.7273C249.412 69.3277 249.104 70.6842 248.488 71.7969C247.873 72.9096 247.039 73.7547 245.988 74.3324C244.942 74.91 243.768 75.1989 242.466 75.1989C241.159 75.1989 239.982 74.9077 238.936 74.3253C237.889 73.7429 237.058 72.8977 236.443 71.7898C235.832 70.6771 235.527 69.3229 235.527 67.7273C235.527 66.1269 235.832 64.7704 236.443 63.6577C237.058 62.545 237.889 61.6998 238.936 61.1222C239.982 60.5445 241.159 60.2557 242.466 60.2557C243.768 60.2557 244.942 60.5445 245.988 61.1222C247.039 61.6998 247.873 62.545 248.488 63.6577C249.104 64.7704 249.412 66.1269 249.412 67.7273ZM245.818 67.7273C245.818 66.7803 245.683 65.9801 245.413 65.3267C245.148 64.6733 244.764 64.1785 244.262 63.8423C243.765 63.5062 243.166 63.3381 242.466 63.3381C241.77 63.3381 241.171 63.5062 240.669 63.8423C240.167 64.1785 239.781 64.6733 239.511 65.3267C239.246 65.9801 239.113 66.7803 239.113 67.7273C239.113 68.6742 239.246 69.4744 239.511 70.1278C239.781 70.7812 240.167 71.276 240.669 71.6122C241.171 71.9484 241.77 72.1165 242.466 72.1165C243.166 72.1165 243.765 71.9484 244.262 71.6122C244.764 71.276 245.148 70.7812 245.413 70.1278C245.683 69.4744 245.818 68.6742 245.818 67.7273ZM250.832 78.5014V72.2585H251.833C252.17 72.0312 252.477 71.714 252.757 71.3068C253.036 70.8949 253.275 70.3172 253.474 69.5739C253.673 68.8258 253.815 67.8385 253.9 66.6122L254.355 60.4545H264.305V72.2585H265.868V78.4943H262.487V75H254.213V78.5014H250.832ZM255.868 72.2585H260.924V63.3097H257.508L257.281 66.6122C257.219 67.5355 257.12 68.3499 256.983 69.0554C256.845 69.7609 256.682 70.3764 256.493 70.902C256.303 71.4228 256.095 71.875 255.868 72.2585ZM281.208 67.7273C281.208 69.3277 280.901 70.6842 280.285 71.7969C279.67 72.9096 278.836 73.7547 277.785 74.3324C276.739 74.91 275.565 75.1989 274.262 75.1989C272.956 75.1989 271.779 74.9077 270.733 74.3253C269.686 73.7429 268.855 72.8977 268.24 71.7898C267.629 70.6771 267.324 69.3229 267.324 67.7273C267.324 66.1269 267.629 64.7704 268.24 63.6577C268.855 62.545 269.686 61.6998 270.733 61.1222C271.779 60.5445 272.956 60.2557 274.262 60.2557C275.565 60.2557 276.739 60.5445 277.785 61.1222C278.836 61.6998 279.67 62.545 280.285 63.6577C280.901 64.7704 281.208 66.1269 281.208 67.7273ZM277.615 67.7273C277.615 66.7803 277.48 65.9801 277.21 65.3267C276.945 64.6733 276.561 64.1785 276.059 63.8423C275.562 63.5062 274.963 63.3381 274.262 63.3381C273.566 63.3381 272.967 63.5062 272.466 63.8423C271.964 64.1785 271.578 64.6733 271.308 65.3267C271.043 65.9801 270.91 66.7803 270.91 67.7273C270.91 68.6742 271.043 69.4744 271.308 70.1278C271.578 70.7812 271.964 71.276 272.466 71.6122C272.967 71.9484 273.566 72.1165 274.262 72.1165C274.963 72.1165 275.562 71.9484 276.059 71.6122C276.561 71.276 276.945 70.7812 277.21 70.1278C277.48 69.4744 277.615 68.6742 277.615 67.7273ZM283.261 75V60.4545H289.27C290.359 60.4545 291.298 60.6676 292.089 61.0938C292.885 61.5152 293.498 62.1046 293.929 62.8622C294.359 63.6151 294.575 64.491 294.575 65.4901C294.575 66.4938 294.355 67.3722 293.914 68.125C293.479 68.8731 292.856 69.4531 292.047 69.8651C291.237 70.277 290.276 70.483 289.163 70.483H285.456V67.7131H288.51C289.04 67.7131 289.483 67.6207 289.838 67.4361C290.198 67.2514 290.47 66.9934 290.654 66.6619C290.839 66.3258 290.931 65.9351 290.931 65.4901C290.931 65.0402 290.839 64.652 290.654 64.3253C290.47 63.9938 290.198 63.7382 289.838 63.5582C289.478 63.3783 289.035 63.2884 288.51 63.2884H286.777V75H283.261Z" fill="black"/>
</g>
<defs>
<clipPath id="clip0_7_83">
<rect width="336" height="104" fill="white"/>
</clipPath>
</defs>
</svg>
